<svg xmlns="http://www.w3.org/2000/svg" version="1.1" xmlns:xlink="http://www.w3.org/1999/xlink" xmlns:svgjs="http://svgjs.dev/svgjs" width="1500" height="1500" viewBox="0 0 1500 1500"><rect width="1500" height="1500" fill="#ffffff"></rect><g transform="matrix(0.6666666666666666,0,0,0.6666666666666666,249.39393939393938,671.7238530522501)"><svg viewBox="0 0 396 62" data-background-color="#ede1d1" preserveAspectRatio="xMidYMid meet" height="234" width="1500" xmlns="http://www.w3.org/2000/svg" xmlns:xlink="http://www.w3.org/1999/xlink"><g id="tight-bounds" transform="matrix(1,0,0,1,0.2400000000000091,0.10975071000316916)"><svg viewBox="0 0 395.52 61.780498579993676" height="61.780498579993676" width="395.52"><g><svg viewBox="0 0 395.52000000000004 61.78049857999368" height="61.780498579993676" width="395.52"><g><svg viewBox="0 0 395.52000000000004 61.78049857999368" height="61.78049857999368" width="395.52000000000004"><g id="textblocktransform"><svg viewBox="0 0 395.52000000000004 61.78049857999368" height="61.78049857999368" width="395.52000000000004" id="textblock"><g><svg viewBox="0 0 395.52000000000004 61.78049857999368" height="61.78049857999368" width="395.52000000000004"><g transform="matrix(1,0,0,1,0,0)"><svg width="395.52000000000004" viewBox="1 -47 316.87 49.5" height="61.78049857999368" data-palette-color="#6a704c"><path d="M43.4-32Q43.4-27.75 40.4-24.68 37.4-21.6 31.65-20.25L31.65-20.25Q34.75-19.4 36.35-17.48 37.95-15.55 37.95-13.05L37.95-13.05Q37.95-9.1 35.48-6.2 33-3.3 28.25-1.73 23.5-0.15 16.8-0.15L16.8-0.15Q14.3-0.15 12.8-0.3L12.8-0.3Q12.75 1.1 11.6 1.8 10.45 2.5 8.65 2.5L8.65 2.5Q6.85 2.5 6.18 1.7 5.5 0.9 5.6-0.65L5.6-0.65Q6.05-7.65 7.35-15.33 8.65-23 10.65-30.15L10.65-30.15Q11-31.4 12.05-31.9 13.1-32.4 14.8-32.4L14.8-32.4Q17.85-32.4 17.85-30.7L17.85-30.7Q17.85-30 17.55-29.1L17.55-29.1Q16.25-25.2 14.95-18.53 13.65-11.85 13.1-5.8L13.1-5.8Q15.5-5.6 17-5.6L17-5.6Q24-5.6 27.28-7.63 30.55-9.65 30.55-12.8L30.55-12.8Q30.55-15 28.68-16.5 26.8-18 22.4-18.15L22.4-18.15Q21.4-18.2 21-18.65 20.6-19.1 20.6-20.1L20.6-20.1Q20.6-21.55 21.2-22.45 21.8-23.35 23.4-23.4L23.4-23.4Q26.95-23.5 29.83-24.45 32.7-25.4 34.35-27.13 36-28.85 36-31.15L36-31.15Q36-34.05 33.15-35.73 30.3-37.4 24.4-37.4L24.4-37.4Q19.05-37.4 14.05-36.02 9.05-34.65 5.55-32.55L5.55-32.55Q3.95-31.6 2.85-31.6L2.85-31.6Q1.95-31.6 1.48-32.23 1-32.85 1-33.8L1-33.8Q1-35.05 1.53-35.95 2.05-36.85 4.05-38L4.05-38Q8.25-40.4 13.9-41.75 19.55-43.1 25.45-43.1L25.45-43.1Q34.5-43.1 38.95-40.05 43.4-37 43.4-32L43.4-32ZM49.3-26.6Q47.2-26.6 46.15-27.58 45.1-28.55 45.1-30.3L45.1-30.3Q45.1-32.05 46.47-33.23 47.85-34.4 49.9-34.4L49.9-34.4Q51.75-34.4 52.9-33.5 54.05-32.6 54.05-30.95L54.05-30.95Q54.05-28.95 52.75-27.78 51.45-26.6 49.3-26.6L49.3-26.6ZM48.9 0.25Q45.65 0.25 44.17-2.05 42.7-4.35 42.7-8.15L42.7-8.15Q42.7-10.4 43.27-13.93 43.85-17.45 44.75-20.5L44.75-20.5Q45.2-22.1 45.95-22.7 46.7-23.3 48.35-23.3L48.35-23.3Q50.9-23.3 50.9-21.6L50.9-21.6Q50.9-20.35 49.95-15.8L49.95-15.8Q48.75-10.3 48.75-8.35L48.75-8.35Q48.75-6.85 49.15-6.05 49.55-5.25 50.5-5.25L50.5-5.25Q51.4-5.25 52.75-6.5 54.1-7.75 56.35-10.45L56.35-10.45Q56.95-11.15 57.7-11.15L57.7-11.15Q58.35-11.15 58.72-10.55 59.1-9.95 59.1-8.9L59.1-8.9Q59.1-6.9 58.15-5.8L58.15-5.8Q53.2 0.25 48.9 0.25L48.9 0.25ZM74-11.15Q74.65-11.15 75.02-10.55 75.4-9.95 75.4-8.9L75.4-8.9Q75.4-6.9 74.45-5.8L74.45-5.8Q72.3-3.15 69.77-1.45 67.25 0.25 64.05 0.25L64.05 0.25Q59.65 0.25 57.52-3.75 55.4-7.75 55.4-14.1L55.4-14.1Q55.4-20.2 56.97-28 58.55-35.8 61.62-41.4 64.7-47 68.95-47L68.95-47Q71.35-47 72.72-44.78 74.1-42.55 74.1-38.4L74.1-38.4Q74.1-32.45 70.8-24.6 67.5-16.75 61.85-9.05L61.85-9.05Q62.2-7 63-6.13 63.8-5.25 65.1-5.25L65.1-5.25Q67.15-5.25 68.7-6.43 70.25-7.6 72.65-10.45L72.65-10.45Q73.25-11.15 74-11.15L74-11.15ZM67.85-42.05Q66.7-42.05 65.25-37.9 63.8-33.75 62.7-27.6 61.6-21.45 61.5-15.8L61.5-15.8Q65.05-21.65 67.15-27.53 69.25-33.4 69.25-38.25L69.25-38.25Q69.25-42.05 67.85-42.05L67.85-42.05ZM97.94-15.35Q98.59-15.35 98.94-14.7 99.29-14.05 99.29-13.05L99.29-13.05Q99.29-11.8 98.94-11.13 98.59-10.45 97.84-10.2L97.84-10.2Q94.84-9.15 91.24-9L91.24-9Q90.24-4.85 87.47-2.3 84.69 0.25 81.34 0.25L81.34 0.25Q76.29 0.25 73.99-3.6 71.69-7.45 71.69-14.75L71.69-14.75Q71.69-21.2 73.29-28.78 74.89-36.35 77.97-41.68 81.04-47 85.29-47L85.29-47Q87.59-47 88.99-45.03 90.39-43.05 90.39-39.9L90.39-39.9Q90.39-35.8 88.84-31.75 87.29-27.7 83.69-23.25L83.69-23.25Q87.04-23 89.14-20.48 91.24-17.95 91.64-14.25L91.64-14.25Q93.99-14.4 97.24-15.25L97.24-15.25Q97.54-15.35 97.94-15.35L97.94-15.35ZM84.14-42.05Q83.14-42.05 81.97-39.08 80.79-36.1 79.79-31 78.79-25.9 78.29-19.85L78.29-19.85Q81.59-25.9 83.57-30.53 85.54-35.15 85.54-38.75L85.54-38.75Q85.54-40.35 85.17-41.2 84.79-42.05 84.14-42.05L84.14-42.05ZM81.54-5.05Q83.09-5.05 84.29-6.35 85.49-7.65 85.89-10.1L85.89-10.1Q84.34-11.15 83.52-12.85 82.69-14.55 82.69-16.45L82.69-16.45Q82.69-17.15 82.89-18.35L82.89-18.35 82.74-18.35Q80.69-18.35 79.32-16.32 77.94-14.3 77.94-10.9L77.94-10.9Q77.94-8.05 79.02-6.55 80.09-5.05 81.54-5.05L81.54-5.05ZM120.49-15.35Q121.14-15.35 121.49-14.7 121.84-14.05 121.84-13.05L121.84-13.05Q121.84-10.65 120.39-10.2L120.39-10.2Q117.39-9.15 113.79-9L113.79-9Q112.84-4.8 110.04-2.27 107.24 0.25 103.69 0.25L103.69 0.25Q100.69 0.25 98.57-1.2 96.44-2.65 95.34-5.05 94.24-7.45 94.24-10.25L94.24-10.25Q94.24-14.05 95.69-17.03 97.14-20 99.69-21.68 102.24-23.35 105.34-23.35L105.34-23.35Q109.14-23.35 111.47-20.73 113.79-18.1 114.19-14.25L114.19-14.25Q116.54-14.4 119.79-15.25L119.79-15.25Q120.19-15.35 120.49-15.35L120.49-15.35ZM104.09-5.05Q105.69-5.05 106.87-6.35 108.04-7.65 108.44-10.1L108.44-10.1Q106.89-11.15 106.07-12.85 105.24-14.55 105.24-16.45L105.24-16.45Q105.24-17.25 105.39-18.05L105.39-18.05 105.14-18.05Q103.14-18.05 101.82-16.13 100.49-14.2 100.49-10.7L100.49-10.7Q100.49-7.95 101.57-6.5 102.64-5.05 104.09-5.05L104.09-5.05ZM136.49-11.15Q137.14-11.15 137.51-10.55 137.89-9.95 137.89-8.9L137.89-8.9Q137.89-6.9 136.94-5.8L136.94-5.8Q134.79-3.15 132.26-1.45 129.74 0.25 126.54 0.25L126.54 0.25Q122.14 0.25 120.01-3.75 117.89-7.75 117.89-14.1L117.89-14.1Q117.89-20.2 119.46-28 121.04-35.8 124.11-41.4 127.19-47 131.44-47L131.44-47Q133.84-47 135.21-44.78 136.59-42.55 136.59-38.4L136.59-38.4Q136.59-32.45 133.29-24.6 129.99-16.75 124.34-9.05L124.34-9.05Q124.69-7 125.49-6.13 126.29-5.25 127.59-5.25L127.59-5.25Q129.64-5.25 131.19-6.43 132.74-7.6 135.14-10.45L135.14-10.45Q135.74-11.15 136.49-11.15L136.49-11.15ZM130.34-42.05Q129.19-42.05 127.74-37.9 126.29-33.75 125.19-27.6 124.09-21.45 123.99-15.8L123.99-15.8Q127.54-21.65 129.64-27.53 131.74-33.4 131.74-38.25L131.74-38.25Q131.74-42.05 130.34-42.05L130.34-42.05ZM196.58-11.15Q197.23-11.15 197.61-10.55 197.98-9.95 197.98-8.9L197.98-8.9Q197.98-6.95 197.03-5.8L197.03-5.8Q194.63-2.9 192.18-1.33 189.73 0.25 186.38 0.25L186.38 0.25Q182.68 0.25 180.33-1.93 177.98-4.1 175.93-8.7L175.93-8.7Q174.43-12 173.46-13.63 172.48-15.25 171.53-15.93 170.58-16.6 169.13-16.75L169.13-16.75 168.58-13.05Q167.53-5.9 164.51-2.75 161.48 0.4 156.18 0.4L156.18 0.4Q152.73 0.4 150.06-1.28 147.38-2.95 146.33-5.55L146.33-5.55Q145.98-6.45 145.98-7.5L145.98-7.5Q145.98-9 146.68-10.1 147.38-11.2 148.48-11.2L148.48-11.2Q149.13-11.2 149.58-10.88 150.03-10.55 150.43-9.75L150.43-9.75Q151.98-6.85 153.16-5.7 154.33-4.55 156.08-4.55L156.08-4.55Q158.08-4.55 159.51-6.38 160.93-8.2 161.53-12L161.53-12 162.23-16.75 161.43-16.75Q160.28-16.75 159.63-17.4 158.98-18.05 158.98-19.2L158.98-19.2Q158.98-20.5 159.66-21.28 160.33-22.05 161.33-22.05L161.33-22.05 162.98-22.05Q163.33-24.5 163.48-25.45L163.48-25.45 165.03-36.7Q163.73-36.85 162.58-36.85L162.58-36.85Q158.33-36.85 156.13-35.38 153.93-33.9 153.93-31.15L153.93-31.15Q153.93-29.9 154.21-29.13 154.48-28.35 154.93-27.4L154.93-27.4Q155.13-27 155.13-26.5L155.13-26.5Q155.13-25.4 154.11-24.58 153.08-23.75 151.83-23.75L151.83-23.75Q150.23-23.75 149.48-25.15L149.48-25.15Q147.98-27.8 147.98-30.85L147.98-30.85Q147.98-34 149.71-36.6 151.43-39.2 154.93-40.78 158.43-42.35 163.58-42.35L163.58-42.35Q165.83-42.35 167.71-42.1 169.58-41.85 171.83-41.15L171.83-41.15Q174.28-40.4 174.28-38.35L174.28-38.35Q174.28-35.6 171.93-35.6L171.93-35.6 169.98-22.15Q175.83-22.75 179.51-27.18 183.18-31.6 185.63-39.2L185.63-39.2Q186.08-40.6 187.16-41.35 188.23-42.1 189.88-42.1L189.88-42.1Q191.28-42.1 192.06-41.48 192.83-40.85 192.83-39.7L192.83-39.7Q192.83-39.35 192.63-38.55L192.63-38.55Q190.13-30.3 185.48-25.45 180.83-20.6 175.33-19L175.33-19Q177.23-18.55 178.46-17.65 179.68-16.75 180.53-15.43 181.38-14.1 182.48-11.75L182.48-11.75Q184.03-8.45 185.38-7.08 186.73-5.7 188.53-5.7L188.53-5.7Q190.13-5.7 191.58-6.78 193.03-7.85 195.23-10.45L195.23-10.45Q195.83-11.15 196.58-11.15L196.58-11.15ZM200.48-26.6Q198.38-26.6 197.33-27.58 196.28-28.55 196.28-30.3L196.28-30.3Q196.28-32.05 197.66-33.23 199.03-34.4 201.08-34.4L201.08-34.4Q202.93-34.4 204.08-33.5 205.23-32.6 205.23-30.95L205.23-30.95Q205.23-28.95 203.93-27.78 202.63-26.6 200.48-26.6L200.48-26.6ZM200.08 0.25Q196.83 0.25 195.36-2.05 193.88-4.35 193.88-8.15L193.88-8.15Q193.88-10.4 194.46-13.93 195.03-17.45 195.93-20.5L195.93-20.5Q196.38-22.1 197.13-22.7 197.88-23.3 199.53-23.3L199.53-23.3Q202.08-23.3 202.08-21.6L202.08-21.6Q202.08-20.35 201.13-15.8L201.13-15.8Q199.93-10.3 199.93-8.35L199.93-8.35Q199.93-6.85 200.33-6.05 200.73-5.25 201.68-5.25L201.68-5.25Q202.58-5.25 203.93-6.5 205.28-7.75 207.53-10.45L207.53-10.45Q208.13-11.15 208.88-11.15L208.88-11.15Q209.53-11.15 209.91-10.55 210.28-9.95 210.28-8.9L210.28-8.9Q210.28-6.9 209.33-5.8L209.33-5.8Q204.38 0.25 200.08 0.25L200.08 0.25ZM228.53-11.15Q229.18-11.15 229.55-10.55 229.93-9.95 229.93-8.9L229.93-8.9Q229.93-6.9 228.98-5.8L228.98-5.8Q226.83-3.15 224.28-1.45 221.73 0.25 218.43 0.25L218.43 0.25Q208.23 0.25 208.23-14.1L208.23-14.1Q208.23-16.3 208.38-18.55L208.38-18.55 206.43-18.55Q204.93-18.55 204.4-19.1 203.88-19.65 203.88-20.85L203.88-20.85Q203.88-23.65 206.13-23.65L206.13-23.65 208.98-23.65Q209.83-29.15 211.58-33.7 213.33-38.25 215.8-40.95 218.28-43.65 221.13-43.65L221.13-43.65Q223.23-43.65 224.43-41.8 225.63-39.95 225.63-37.15L225.63-37.15Q225.63-29.4 219.13-23.65L219.13-23.65 224.73-23.65Q225.53-23.65 225.88-23.3 226.23-22.95 226.23-22L226.23-22Q226.23-18.55 220.58-18.55L220.58-18.55 214.48-18.55Q214.38-16.05 214.38-14.65L214.38-14.65Q214.38-9.45 215.6-7.35 216.83-5.25 219.48-5.25L219.48-5.25Q221.63-5.25 223.28-6.55 224.93-7.85 227.18-10.45L227.18-10.45Q227.78-11.15 228.53-11.15L228.53-11.15ZM219.78-38.85Q219.03-38.85 218.1-36.98 217.18-35.1 216.35-31.78 215.53-28.45 214.98-24.4L214.98-24.4Q217.93-26.95 219.4-30.13 220.88-33.3 220.88-35.9L220.88-35.9Q220.88-38.85 219.78-38.85L219.78-38.85ZM235.43 0.25Q230.53 0.25 227.8-2.53 225.08-5.3 225.08-9.85L225.08-9.85Q225.08-13.9 226.68-16.95 228.28-20 230.83-21.65 233.38-23.3 236.18-23.3L236.18-23.3Q238.93-23.3 240.45-21.68 241.98-20.05 241.98-17.5L241.98-17.5Q241.98-15.4 241.05-13.95 240.13-12.5 238.63-12.5L238.63-12.5Q237.68-12.5 237.1-12.95 236.53-13.4 236.53-14.2L236.53-14.2Q236.53-14.55 236.63-15 236.73-15.45 236.78-15.65L236.78-15.65Q237.03-16.4 237.03-17.05L237.03-17.05Q237.03-17.7 236.7-18.05 236.38-18.4 235.78-18.4L235.78-18.4Q234.63-18.4 233.63-17.38 232.63-16.35 232.03-14.6 231.43-12.85 231.43-10.75L231.43-10.75Q231.43-4.95 236.48-4.95L236.48-4.95Q238.53-4.95 240.9-6.33 243.28-7.7 245.58-10.45L245.58-10.45Q246.18-11.15 246.93-11.15L246.93-11.15Q247.58-11.15 247.95-10.55 248.33-9.95 248.33-8.9L248.33-8.9Q248.33-7 247.38-5.8L247.38-5.8Q245.03-2.9 241.75-1.33 238.48 0.25 235.43 0.25L235.43 0.25ZM272.02-11.15Q272.67-11.15 273.05-10.55 273.42-9.95 273.42-8.9L273.42-8.9Q273.42-6.9 272.47-5.8L272.47-5.8Q270.17-3.15 267.75-1.45 265.32 0.25 262.22 0.25L262.22 0.25Q259.67 0.25 258.37-1.23 257.07-2.7 257.07-5.5L257.07-5.5Q257.07-6.9 257.77-10.5L257.77-10.5Q258.42-13.65 258.42-14.85L258.42-14.85Q258.42-15.65 257.87-15.65L257.87-15.65Q257.22-15.65 256.02-13.98 254.82-12.3 253.62-9.55 252.42-6.8 251.67-3.75L251.67-3.75Q250.72 0.25 246.97 0.25L246.97 0.25Q245.47 0.25 245-0.83 244.52-1.9 244.52-4.7L244.52-4.7Q244.52-6.3 244.57-7.25L244.57-7.25 244.62-11.25Q244.62-18.95 246.2-27.3 247.77-35.65 250.85-41.33 253.92-47 258.22-47L258.22-47Q260.52-47 261.95-45.03 263.37-43.05 263.37-39.9L263.37-39.9Q263.37-34.85 260.42-29.43 257.47-24 250.82-16.75L250.82-16.75Q250.67-14.15 250.67-11.4L250.67-11.4Q252.32-15.65 254.35-18.32 256.37-21 258.35-22.15 260.32-23.3 261.97-23.3L261.97-23.3Q265.22-23.3 265.22-20.05L265.22-20.05Q265.22-18.1 264.12-13L264.12-13Q263.17-8.65 263.17-7.25L263.17-7.25Q263.17-5.25 264.62-5.25L264.62-5.25Q265.62-5.25 267-6.48 268.37-7.7 270.67-10.45L270.67-10.45Q271.27-11.15 272.02-11.15L272.02-11.15ZM257.17-42.05Q256.27-42.05 255.17-39.48 254.07-36.9 253.05-32.52 252.02-28.15 251.37-23L251.37-23Q254.47-26.65 256.5-30.95 258.52-35.25 258.52-38.75L258.52-38.75Q258.52-40.35 258.17-41.2 257.82-42.05 257.17-42.05L257.17-42.05ZM291.67-11.15Q292.32-11.15 292.7-10.55 293.07-9.95 293.07-8.9L293.07-8.9Q293.07-6.9 292.12-5.8L292.12-5.8Q290.27-3.55 286.9-1.65 283.52 0.25 279.67 0.25L279.67 0.25Q274.42 0.25 271.52-2.6 268.62-5.45 268.62-10.4L268.62-10.4Q268.62-13.85 270.07-16.82 271.52-19.8 274.1-21.55 276.67-23.3 279.92-23.3L279.92-23.3Q282.82-23.3 284.57-21.58 286.32-19.85 286.32-16.9L286.32-16.9Q286.32-13.45 283.85-10.98 281.37-8.5 275.47-7.05L275.47-7.05Q276.72-4.75 280.22-4.75L280.22-4.75Q282.47-4.75 285.35-6.33 288.22-7.9 290.32-10.45L290.32-10.45Q290.92-11.15 291.67-11.15L291.67-11.15ZM279.07-18.4Q277.22-18.4 275.95-16.25 274.67-14.1 274.67-11.05L274.67-11.05 274.67-10.95Q277.62-11.65 279.32-13.05 281.02-14.45 281.02-16.3L281.02-16.3Q281.02-17.25 280.5-17.82 279.97-18.4 279.07-18.4L279.07-18.4ZM292.57 0.25Q290.67 0.25 289.89-1.75 289.12-3.75 289.12-8.15L289.12-8.15Q289.12-14.65 290.97-20.5L290.97-20.5Q291.42-21.95 292.44-22.63 293.47-23.3 295.32-23.3L295.32-23.3Q296.32-23.3 296.72-23.05 297.12-22.8 297.12-22.1L297.12-22.1Q297.12-21.3 296.37-18.5L296.37-18.5Q295.87-16.5 295.57-15 295.27-13.5 295.07-11.3L295.07-11.3Q296.72-15.6 298.77-18.3 300.82-21 302.79-22.15 304.77-23.3 306.42-23.3L306.42-23.3Q309.67-23.3 309.67-20.05L309.67-20.05Q309.67-18.1 308.57-13L308.57-13Q307.62-8.65 307.62-7.25L307.62-7.25Q307.62-5.25 309.07-5.25L309.07-5.25Q310.07-5.25 311.44-6.48 312.82-7.7 315.12-10.45L315.12-10.45Q315.72-11.15 316.47-11.15L316.47-11.15Q317.12-11.15 317.49-10.55 317.87-9.95 317.87-8.9L317.87-8.9Q317.87-6.9 316.92-5.8L316.92-5.8Q314.77-3.15 312.29-1.45 309.82 0.25 306.67 0.25L306.67 0.25Q304.12 0.25 302.82-1.23 301.52-2.7 301.52-5.5L301.52-5.5Q301.52-6.9 302.22-10.5L302.22-10.5Q302.87-13.65 302.87-14.85L302.87-14.85Q302.87-15.65 302.32-15.65L302.32-15.65Q301.67-15.65 300.49-13.98 299.32-12.3 298.09-9.55 296.87-6.8 296.12-3.75L296.12-3.75Q295.57-1.4 294.84-0.58 294.12 0.25 292.57 0.25L292.57 0.25Z" opacity="1" transform="matrix(1,0,0,1,0,0)" fill="#000000" class="wordmark-text-0" data-fill-palette-color="primary" id="text-0"></path></svg></g></svg></g></svg></g></svg></g></svg></g><defs></defs></svg><rect width="395.52" height="61.780498579993676" fill="none" stroke="none" visibility="hidden"></rect></g></svg></g></svg>